<svg width="23" height="23" viewBox="0 0 23 23" fill="none" xmlns="http://www.w3.org/2000/svg">
<path fill-rule="evenodd" clip-rule="evenodd" d="M22.7392 9.18208H11.7144C11.7144 10.3286 11.7144 12.6215 11.7074 13.7681H18.096C17.8512 14.9146 16.9832 16.5201 15.7568 17.3284C15.7568 17.3284 15.7544 17.3352 15.7521 17.334C14.1215 18.4107 11.9698 18.655 10.372 18.3339C7.86764 17.8363 5.88568 16.0201 5.08096 13.7132C5.08564 13.7097 5.08917 13.6779 5.09268 13.6757C4.589 12.2448 4.589 10.3286 5.09268 9.18208H5.09151C5.74045 7.07472 7.78212 5.15204 10.29 4.62578C12.3071 4.19811 14.5831 4.66107 16.2569 6.22726C16.4795 6.00942 19.3376 3.21882 19.552 2.9918C13.8334 -2.18718 4.67684 -0.36536 1.25061 6.32249H1.24944C1.24944 6.32249 1.25062 6.32276 1.24359 6.33537C-0.45137 9.62025 -0.38109 13.4909 1.2553 16.6187C1.25062 16.6221 1.24711 16.6242 1.24359 16.6277C2.72653 19.5055 5.42535 21.7126 8.67705 22.553C12.1314 23.4588 16.5275 22.8397 19.4723 20.1763L19.4758 20.1796C21.9708 17.9324 23.524 14.1042 22.7392 9.18208Z" fill="white"/>
</svg>
