<svg width="36" height="24" viewBox="0 0 36 24" fill="none" xmlns="http://www.w3.org/2000/svg">
<path fill-rule="evenodd" clip-rule="evenodd" d="M24.7198 20.0112V5.88566C24.7198 4.32468 24.0997 2.82764 22.9959 1.72387C21.8921 0.620094 20.3951 0 18.8341 0H2.35426C1.72987 0 1.13106 0.248038 0.689547 0.689547C0.248038 1.13106 0 1.72987 0 2.35426V11.2203C0 10.7795 0.157086 10.402 0.471255 10.0879C0.785423 9.7737 1.16264 9.61688 1.6029 9.61741H14.4261C14.8669 9.61741 15.2444 9.7745 15.5586 10.0887C15.8727 10.4028 16.0296 10.7801 16.029 11.2203V20.8377C16.029 21.2785 15.8719 21.656 15.5578 21.9702C15.3695 22.1585 15.1585 22.2902 14.925 22.3655H22.3655C22.9899 22.3655 23.5887 22.1175 24.0302 21.6759C24.4717 21.2344 24.7198 20.6356 24.7198 20.0112ZM34.1368 2.93981C34.3444 2.93981 34.548 2.99685 34.7254 3.10468C34.9058 3.20529 35.0556 3.35272 35.1592 3.53141C35.2628 3.7101 35.3163 3.91343 35.3139 4.11996V18.2455C35.3163 18.4521 35.2628 18.6554 35.1592 18.8341C35.0556 19.0128 34.9058 19.1602 34.7254 19.2608C34.5468 19.3656 34.3438 19.4214 34.1368 19.4227C33.9301 19.4194 33.7276 19.3637 33.5482 19.2608L27.6626 15.906C27.4821 15.8018 27.3325 15.6515 27.2291 15.4706C27.1257 15.2896 27.0721 15.0844 27.074 14.876V7.4895C27.0721 7.28108 27.1257 7.0759 27.2291 6.89494C27.3325 6.71397 27.4821 6.56371 27.6626 6.45951L33.5482 3.10468C33.7256 2.99685 33.9292 2.93981 34.1368 2.93981Z" fill="black"/>
<path d="M1.19793e-06 23.2753V12.3295C1.19793e-06 11.943 0.144165 11.612 0.432491 11.3365C0.720818 11.061 1.06701 10.9235 1.47106 10.924H13.2395C13.644 10.924 13.9905 11.0617 14.2788 11.3372C14.5671 11.6127 14.711 11.9435 14.7106 12.3295V20.7629C14.7106 21.1494 14.5664 21.4804 14.2781 21.7559C13.9897 22.0314 13.6435 22.1689 13.2395 22.1685H2.94211L1.2504 23.7848C1.01748 24.0074 0.75073 24.0573 0.450144 23.9345C0.149558 23.8118 -0.000489154 23.5921 1.19793e-06 23.2753Z" fill="black"/>
</svg>
